<?xml version="1.0" standalone="no"?>
<!DOCTYPE svg PUBLIC "-//W3C//DTD SVG 20010904//EN"
 "http://www.w3.org/TR/2001/REC-SVG-20010904/DTD/svg10.dtd">
<svg version="1.0" xmlns="http://www.w3.org/2000/svg"
 width="500.000000pt" height="500.000000pt" viewBox="0 0 500.000000 500.000000"
 preserveAspectRatio="xMidYMid meet">

<g transform="translate(0.000000,500.000000) scale(0.100000,-0.100000)"
fill="#000000" stroke="none">
<path d="M2117 4170 c-266 -56 -462 -162 -647 -349 -144 -145 -231 -281 -300
-471 -26 -70 -30 -75 -61 -81 -568 -109 -927 -611 -835 -1169 59 -360 320
-672 666 -798 144 -52 229 -62 565 -62 l290 0 -3 92 c-2 51 -5 98 -7 105 -3 8
-89 12 -302 15 -342 5 -390 13 -539 83 -139 67 -243 157 -331 288 -240 358
-145 856 208 1097 120 82 278 140 383 140 47 0 108 19 120 38 3 6 17 53 30
105 25 96 91 242 148 324 47 69 163 187 236 242 69 52 196 119 277 146 184 62
463 62 651 0 47 -16 67 -24 152 -62 58 -26 172 -106 237 -165 122 -110 234
-293 269 -438 19 -77 42 -126 65 -136 9 -4 77 -8 151 -9 82 -2 157 -9 190 -18
283 -77 502 -292 586 -577 57 -193 28 -432 -74 -620 -67 -124 -157 -223 -265
-295 -53 -35 -57 -40 -57 -77 0 -22 4 -58 9 -81 6 -23 12 -54 16 -69 7 -36 22
-35 87 4 260 158 434 393 508 684 27 105 33 329 12 429 -100 471 -471 808
-929 843 l-85 7 -32 81 c-153 379 -502 666 -916 754 -127 26 -347 27 -473 0z"/>
<path d="M2778 3083 c-58 -3 -70 -7 -88 -30 -13 -17 -20 -41 -20 -69 0 -76
-10 -88 -102 -123 -46 -18 -103 -43 -127 -57 -24 -13 -53 -24 -65 -24 -12 0
-42 20 -68 45 -53 51 -85 62 -121 43 -14 -7 -64 -54 -111 -105 -107 -113 -110
-131 -40 -217 l47 -56 -35 -78 c-20 -42 -43 -102 -53 -132 -9 -30 -23 -61 -29
-68 -7 -7 -45 -16 -84 -20 -110 -12 -112 -15 -112 -192 0 -140 1 -147 23 -168
19 -18 35 -22 83 -22 73 0 96 -15 113 -72 7 -24 33 -81 57 -127 24 -46 44 -91
44 -100 0 -9 -16 -33 -36 -52 -41 -39 -64 -79 -64 -109 0 -26 176 -218 206
-226 28 -7 67 14 124 65 24 23 52 41 63 41 10 0 50 -17 90 -39 40 -21 95 -47
122 -57 72 -25 75 -29 75 -98 0 -43 6 -70 20 -94 l20 -32 155 0 c152 0 156 1
180 25 22 21 25 33 25 93 0 44 5 73 13 79 6 5 44 22 82 38 39 16 94 41 124 57
30 15 60 28 68 28 8 0 35 -20 61 -44 53 -49 82 -66 111 -66 22 0 181 141 214
189 29 42 16 85 -43 147 -56 60 -57 65 -15 139 12 22 35 74 50 115 16 41 35
81 44 88 8 7 43 12 82 12 61 0 70 3 88 26 19 24 21 40 21 164 0 174 -3 178
-116 194 l-79 11 -27 77 c-14 43 -40 103 -57 134 -17 32 -31 61 -31 64 0 4 17
29 39 56 84 108 81 125 -41 245 -50 48 -101 90 -114 93 -31 8 -59 -7 -107 -55
-45 -45 -77 -50 -133 -19 -20 12 -71 32 -113 46 -112 38 -107 34 -114 114 -11
127 -35 136 -299 123z m277 -647 c166 -75 277 -230 292 -406 16 -189 -100
-385 -277 -469 -73 -35 -78 -36 -200 -36 -124 0 -126 0 -200 37 -96 47 -148
92 -198 171 -51 81 -73 144 -80 230 -16 209 129 420 336 488 87 29 245 22 327
-15z"/>
</g>
</svg>
